<?xml version="1.0" standalone="no"?>
<!DOCTYPE svg PUBLIC "-//W3C//DTD SVG 20010904//EN"
 "http://www.w3.org/TR/2001/REC-SVG-20010904/DTD/svg10.dtd">
<svg version="1.0" xmlns="http://www.w3.org/2000/svg"
 width="78.000000pt" height="78.000000pt" viewBox="0 0 78.000000 78.000000"
 preserveAspectRatio="xMidYMid meet">

<g transform="translate(0.000000,78.000000) scale(0.100000,-0.100000)"
fill="#00674B" stroke="none">
<path d="M0 390 l0 -390 390 0 390 0 0 390 0 390 -390 0 -390 0 0 -390z m532
301 c8 -10 22 -21 29 -23 30 -10 -82 -138 -121 -138 -13 0 -21 -10 -25 -32
-13 -57 -46 -111 -111 -179 -63 -65 -64 -66 -64 -122 l0 -57 79 0 80 0 3 52 3
53 45 5 45 5 3 58 c2 40 8 60 18 64 13 5 13 8 -1 30 -10 15 -15 40 -13 65 4
53 28 64 28 13 0 -19 9 -53 20 -75 11 -22 20 -43 20 -48 0 -6 -9 -12 -20 -15
-17 -4 -20 -14 -20 -56 0 -56 -14 -71 -69 -71 -31 0 -31 0 -31 -55 l0 -55
-110 0 -110 0 0 205 c0 176 2 205 15 205 12 0 15 -18 15 -105 0 -58 4 -105 9
-105 25 0 117 130 127 178 6 31 6 32 -24 26 -43 -9 -77 18 -96 73 -21 62 -21
93 2 93 35 0 98 -23 120 -43 l23 -21 22 27 c20 25 74 67 87 67 3 0 13 -8 22
-19z"/>
<path d="M280 609 c11 -37 37 -69 57 -69 17 0 16 5 -3 35 -19 29 -9 33 18 8
21 -19 31 -14 22 11 -8 20 -55 46 -83 46 -17 0 -19 -4 -11 -31z"/>
</g>
</svg>
